<svg xmlns="http://www.w3.org/2000/svg" width="1250" height="680" viewBox="0 0 1250 680">
<rect width="100%" height="100%" fill="white"/>
<text x="625.0" y="28.0" font-family="Arial, Helvetica, sans-serif" font-size="20" text-anchor="middle" fill="#222">Robustness under controlled Sentinel-2 degradation</text>
<line x1="92" y1="526.0" x2="1198" y2="526.0" stroke="#DDDDDD" stroke-width="1"/>
<text x="80.0" y="531.0" font-family="Arial, Helvetica, sans-serif" font-size="13" text-anchor="end" fill="#222">0.00</text>
<line x1="92" y1="432.0" x2="1198" y2="432.0" stroke="#DDDDDD" stroke-width="1"/>
<text x="80.0" y="437.0" font-family="Arial, Helvetica, sans-serif" font-size="13" text-anchor="end" fill="#222">0.15</text>
<line x1="92" y1="338.0" x2="1198" y2="338.0" stroke="#DDDDDD" stroke-width="1"/>
<text x="80.0" y="343.0" font-family="Arial, Helvetica, sans-serif" font-size="13" text-anchor="end" fill="#222">0.30</text>
<line x1="92" y1="244.0" x2="1198" y2="244.0" stroke="#DDDDDD" stroke-width="1"/>
<text x="80.0" y="249.0" font-family="Arial, Helvetica, sans-serif" font-size="13" text-anchor="end" fill="#222">0.45</text>
<line x1="92" y1="150.0" x2="1198" y2="150.0" stroke="#DDDDDD" stroke-width="1"/>
<text x="80.0" y="155.0" font-family="Arial, Helvetica, sans-serif" font-size="13" text-anchor="end" fill="#222">0.60</text>
<line x1="92" y1="56.0" x2="1198" y2="56.0" stroke="#DDDDDD" stroke-width="1"/>
<text x="80.0" y="61.0" font-family="Arial, Helvetica, sans-serif" font-size="13" text-anchor="end" fill="#222">0.75</text>
<line x1="92" y1="56" x2="92" y2="526" stroke="#222" stroke-width="1.2"/>
<line x1="92" y1="526" x2="1198" y2="526" stroke="#222" stroke-width="1.2"/>
<text x="22.0" y="291.0" font-family="Arial, Helvetica, sans-serif" font-size="16" text-anchor="middle" fill="#222">IoU</text>
<line x1="92" y1="269.6" x2="1198" y2="269.6" stroke="#777" stroke-width="2" stroke-dasharray="8 6"/>
<text x="202.6" y="560.0" font-family="Arial, Helvetica, sans-serif" font-size="13" text-anchor="middle" fill="#222">Clean</text>
<rect x="133.6" y="97.7" width="42" height="428.3" fill="#4C78A8" stroke="#111" stroke-width="0.8"/>
<line x1="154.6" y1="92.2" x2="154.6" y2="103.3" stroke="#111" stroke-width="1"/>
<line x1="146.6" y1="92.2" x2="162.6" y2="92.2" stroke="#111" stroke-width="1"/>
<line x1="146.6" y1="103.3" x2="162.6" y2="103.3" stroke="#111" stroke-width="1"/>
<rect x="181.6" y="116.2" width="42" height="409.8" fill="#F58518" stroke="#111" stroke-width="0.8"/>
<line x1="202.6" y1="109.6" x2="202.6" y2="122.7" stroke="#111" stroke-width="1"/>
<line x1="194.6" y1="109.6" x2="210.6" y2="109.6" stroke="#111" stroke-width="1"/>
<line x1="194.6" y1="122.7" x2="210.6" y2="122.7" stroke="#111" stroke-width="1"/>
<rect x="229.6" y="122.9" width="42" height="403.1" fill="#54A24B" stroke="#111" stroke-width="0.8"/>
<line x1="250.6" y1="108.6" x2="250.6" y2="137.2" stroke="#111" stroke-width="1"/>
<line x1="242.6" y1="108.6" x2="258.6" y2="108.6" stroke="#111" stroke-width="1"/>
<line x1="242.6" y1="137.2" x2="258.6" y2="137.2" stroke="#111" stroke-width="1"/>
<text x="423.8" y="560.0" font-family="Arial, Helvetica, sans-serif" font-size="13" text-anchor="middle" fill="#222">Patch</text>
<rect x="354.8" y="175.2" width="42" height="350.8" fill="#4C78A8" stroke="#111" stroke-width="0.8"/>
<line x1="375.8" y1="157.8" x2="375.8" y2="192.6" stroke="#111" stroke-width="1"/>
<line x1="367.8" y1="157.8" x2="383.8" y2="157.8" stroke="#111" stroke-width="1"/>
<line x1="367.8" y1="192.6" x2="383.8" y2="192.6" stroke="#111" stroke-width="1"/>
<rect x="402.8" y="162.6" width="42" height="363.4" fill="#F58518" stroke="#111" stroke-width="0.8"/>
<line x1="423.8" y1="151.1" x2="423.8" y2="174.1" stroke="#111" stroke-width="1"/>
<line x1="415.8" y1="151.1" x2="431.8" y2="151.1" stroke="#111" stroke-width="1"/>
<line x1="415.8" y1="174.1" x2="431.8" y2="174.1" stroke="#111" stroke-width="1"/>
<rect x="450.8" y="179.5" width="42" height="346.5" fill="#54A24B" stroke="#111" stroke-width="0.8"/>
<line x1="471.8" y1="157.4" x2="471.8" y2="201.5" stroke="#111" stroke-width="1"/>
<line x1="463.8" y1="157.4" x2="479.8" y2="157.4" stroke="#111" stroke-width="1"/>
<line x1="463.8" y1="201.5" x2="479.8" y2="201.5" stroke="#111" stroke-width="1"/>
<text x="645.0" y="560.0" font-family="Arial, Helvetica, sans-serif" font-size="13" text-anchor="middle" fill="#222">Noise</text>
<rect x="576.0" y="299.1" width="42" height="226.9" fill="#4C78A8" stroke="#111" stroke-width="0.8"/>
<line x1="597.0" y1="272.1" x2="597.0" y2="326.2" stroke="#111" stroke-width="1"/>
<line x1="589.0" y1="272.1" x2="605.0" y2="272.1" stroke="#111" stroke-width="1"/>
<line x1="589.0" y1="326.2" x2="605.0" y2="326.2" stroke="#111" stroke-width="1"/>
<rect x="624.0" y="263.7" width="42" height="262.3" fill="#F58518" stroke="#111" stroke-width="0.8"/>
<line x1="645.0" y1="261.4" x2="645.0" y2="265.9" stroke="#111" stroke-width="1"/>
<line x1="637.0" y1="261.4" x2="653.0" y2="261.4" stroke="#111" stroke-width="1"/>
<line x1="637.0" y1="265.9" x2="653.0" y2="265.9" stroke="#111" stroke-width="1"/>
<rect x="672.0" y="283.6" width="42" height="242.4" fill="#54A24B" stroke="#111" stroke-width="0.8"/>
<line x1="693.0" y1="252.4" x2="693.0" y2="314.8" stroke="#111" stroke-width="1"/>
<line x1="685.0" y1="252.4" x2="701.0" y2="252.4" stroke="#111" stroke-width="1"/>
<line x1="685.0" y1="314.8" x2="701.0" y2="314.8" stroke="#111" stroke-width="1"/>
<text x="866.2" y="560.0" font-family="Arial, Helvetica, sans-serif" font-size="13" text-anchor="middle" fill="#222">Post-S2 missing</text>
<rect x="797.2" y="271.8" width="42" height="254.2" fill="#4C78A8" stroke="#111" stroke-width="0.8"/>
<line x1="818.2" y1="265.2" x2="818.2" y2="278.3" stroke="#111" stroke-width="1"/>
<line x1="810.2" y1="265.2" x2="826.2" y2="265.2" stroke="#111" stroke-width="1"/>
<line x1="810.2" y1="278.3" x2="826.2" y2="278.3" stroke="#111" stroke-width="1"/>
<rect x="845.2" y="252.0" width="42" height="274.0" fill="#F58518" stroke="#111" stroke-width="0.8"/>
<line x1="866.2" y1="241.2" x2="866.2" y2="262.7" stroke="#111" stroke-width="1"/>
<line x1="858.2" y1="241.2" x2="874.2" y2="241.2" stroke="#111" stroke-width="1"/>
<line x1="858.2" y1="262.7" x2="874.2" y2="262.7" stroke="#111" stroke-width="1"/>
<rect x="893.2" y="263.1" width="42" height="262.9" fill="#54A24B" stroke="#111" stroke-width="0.8"/>
<line x1="914.2" y1="245.9" x2="914.2" y2="280.3" stroke="#111" stroke-width="1"/>
<line x1="906.2" y1="245.9" x2="922.2" y2="245.9" stroke="#111" stroke-width="1"/>
<line x1="906.2" y1="280.3" x2="922.2" y2="280.3" stroke="#111" stroke-width="1"/>
<text x="1087.4" y="560.0" font-family="Arial, Helvetica, sans-serif" font-size="13" text-anchor="middle" fill="#222">All S2 missing</text>
<rect x="1018.4" y="496.8" width="42" height="29.2" fill="#4C78A8" stroke="#111" stroke-width="0.8"/>
<line x1="1039.4" y1="461.9" x2="1039.4" y2="526.0" stroke="#111" stroke-width="1"/>
<line x1="1031.4" y1="461.9" x2="1047.4" y2="461.9" stroke="#111" stroke-width="1"/>
<line x1="1031.4" y1="526.0" x2="1047.4" y2="526.0" stroke="#111" stroke-width="1"/>
<rect x="1066.4" y="330.2" width="42" height="195.8" fill="#F58518" stroke="#111" stroke-width="0.8"/>
<line x1="1087.4" y1="316.2" x2="1087.4" y2="344.3" stroke="#111" stroke-width="1"/>
<line x1="1079.4" y1="316.2" x2="1095.4" y2="316.2" stroke="#111" stroke-width="1"/>
<line x1="1079.4" y1="344.3" x2="1095.4" y2="344.3" stroke="#111" stroke-width="1"/>
<rect x="1114.4" y="309.7" width="42" height="216.3" fill="#54A24B" stroke="#111" stroke-width="0.8"/>
<line x1="1135.4" y1="296.2" x2="1135.4" y2="323.3" stroke="#111" stroke-width="1"/>
<line x1="1127.4" y1="296.2" x2="1143.4" y2="296.2" stroke="#111" stroke-width="1"/>
<line x1="1127.4" y1="323.3" x2="1143.4" y2="323.3" stroke="#111" stroke-width="1"/>
<rect x="100" y="622" width="18" height="18" fill="#4C78A8" stroke="#111" stroke-width="0.8"/>
<text x="126.0" y="636.0" font-family="Arial, Helvetica, sans-serif" font-size="13" text-anchor="start" fill="#222">Clean multimodal</text>
<rect x="350" y="622" width="18" height="18" fill="#F58518" stroke="#111" stroke-width="0.8"/>
<text x="376.0" y="636.0" font-family="Arial, Helvetica, sans-serif" font-size="13" text-anchor="start" fill="#222">Light dropout</text>
<rect x="600" y="622" width="18" height="18" fill="#54A24B" stroke="#111" stroke-width="0.8"/>
<text x="626.0" y="636.0" font-family="Arial, Helvetica, sans-serif" font-size="13" text-anchor="start" fill="#222">Balanced dropout</text>
<line x1="100" y1="656" x2="128" y2="656" stroke="#777" stroke-width="2" stroke-dasharray="8 6"/>
<text x="136.0" y="661.0" font-family="Arial, Helvetica, sans-serif" font-size="13" text-anchor="start" fill="#222">S1 fallback</text>
</svg>
